<svg width="12" height="12" viewBox="0 0 12 12" fill="none" xmlns="http://www.w3.org/2000/svg">
<path d="M9.17998 6.55292C9.90746 6.55292 10.5661 6.59885 10.9713 6.68436C10.9776 6.68436 11.3484 6.76909 11.4719 6.82373C11.6503 6.90925 11.8013 7.06366 11.8975 7.25687C11.9663 7.41128 12 7.5744 12 7.74464C11.9937 7.92201 11.8905 8.25538 11.842 8.38683C11.5408 9.2531 10.5521 10.9088 9.94889 11.5439C9.85268 11.6516 9.73612 11.768 9.70874 11.7989C9.55706 11.9303 9.37238 12 9.17366 12C8.9946 12 8.81624 11.9382 8.67229 11.8139C8.59751 11.7545 8.48836 11.6363 8.43846 11.581L8.41178 11.551C7.78683 10.9017 6.84729 9.28398 6.54534 8.46363C6.53891 8.46363 6.3885 8.05443 6.35807 7.80753L6.35294 7.74464V7.71376C6.35294 7.35743 6.5313 7.02486 6.8199 6.85461C6.9779 6.76197 7.43713 6.67645 7.44415 6.66853C7.85564 6.59885 8.48691 6.55292 9.17998 6.55292ZM2.82332 6.59369C3.11087 6.59369 3.34756 6.83743 3.3799 7.15183L3.38367 7.22556L3.53745 10.278C3.53745 10.7231 3.21795 11.0833 2.82332 11.0833C2.45335 11.0833 2.1488 10.7667 2.11218 10.3604L2.10848 10.278L2.26297 7.22556C2.26297 6.87637 2.51365 6.59369 2.82332 6.59369ZM2.82704 0C3.0047 0 3.18305 0.0617624 3.32771 0.185287C3.39003 0.235271 3.47621 0.325774 3.53208 0.386623L3.58822 0.448965C4.21247 1.09905 5.15271 2.71596 5.45466 3.53629C5.46045 3.53629 5.61139 3.94615 5.64192 4.19316L5.64706 4.25606V4.28694C5.64706 4.64247 5.468 4.97504 5.1801 5.14528C5.0221 5.23871 4.56287 5.32344 4.55585 5.33136C4.14436 5.40104 3.51309 5.44696 2.82002 5.44696C2.09254 5.44696 1.43388 5.40104 1.02872 5.31552C1.02169 5.31552 0.651638 5.2308 0.528051 5.17616C0.349694 5.09143 0.198721 4.93624 0.102521 4.74303C0.0337054 4.58863 0 4.42551 0 4.25606C0.00631976 4.0779 0.109543 3.74533 0.157292 3.61389C0.459236 2.74684 1.44723 1.09113 2.05111 0.456883C2.14731 0.348403 2.26388 0.232005 2.29127 0.201124C2.44224 0.0696806 2.62762 0 2.82704 0ZM9.17682 0.916667C9.54679 0.916667 9.85073 1.23333 9.88727 1.63959L9.89095 1.72197L9.73717 4.77452C9.73717 5.12372 9.48649 5.40641 9.17682 5.40641C8.88927 5.40641 8.65258 5.16267 8.62024 4.84825L8.61647 4.77452L8.46199 1.72197C8.46199 1.27695 8.78219 0.916667 9.17682 0.916667Z" fill="#FAFAFA"/>
</svg>
